<svg xmlns="http://www.w3.org/2000/svg" width="61.025" height="49.627" viewBox="0 0 61.025 49.627">
  <g id="Group_921" data-name="Group 921" transform="translate(14133 -16618.002)">
    <path id="Path_3040" data-name="Path 3040" d="M463.935,581.309h-3.5a2.183,2.183,0,0,1-1.947-1.4l-.654-1.584a2.19,2.19,0,0,1,.381-2.363l2.477-2.479a1.477,1.477,0,0,0,0-2.085l-3.828-3.837a1.493,1.493,0,0,0-2.091,0l-2.481,2.479a2.183,2.183,0,0,1-2.363.385l-1.582-.654a2.194,2.194,0,0,1-1.394-1.945v-3.5a1.49,1.49,0,0,0-1.481-1.477h-5.419a1.48,1.48,0,0,0-1.474,1.477v3.5a2.2,2.2,0,0,1-1.405,1.945l-1.582.654a2.187,2.187,0,0,1-2.367-.385l-2.477-2.479a1.486,1.486,0,0,0-2.085,0l-3.833,3.837a1.477,1.477,0,0,0,0,2.085l2.481,2.479a2.208,2.208,0,0,1,.383,2.363l-.652,1.584a2.2,2.2,0,0,1-1.951,1.4h-3.5a1.484,1.484,0,0,0-1.475,1.479V588.2a1.486,1.486,0,0,0,1.475,1.481h3.5a2.2,2.2,0,0,1,1.951,1.4l.652,1.582a2.216,2.216,0,0,1-.383,2.369l-2.481,2.477a1.481,1.481,0,0,0,0,2.089l3.833,3.831a1.479,1.479,0,0,0,2.085,0l2.477-2.479a2.2,2.2,0,0,1,2.367-.387l1.582.656a2.2,2.2,0,0,1,1.405,1.943v3.507a1.479,1.479,0,0,0,1.474,1.479h5.419a1.489,1.489,0,0,0,1.481-1.479v-3.507a2.2,2.2,0,0,1,1.394-1.943l1.582-.656a2.2,2.2,0,0,1,2.363.387l2.481,2.479a1.486,1.486,0,0,0,2.091,0l3.828-3.831a1.481,1.481,0,0,0,0-2.089l-2.477-2.477a2.2,2.2,0,0,1-.381-2.369l.654-1.582a2.19,2.19,0,0,1,1.947-1.4h3.5a1.483,1.483,0,0,0,1.475-1.481v-5.412A1.482,1.482,0,0,0,463.935,581.309Zm-21.176,11.326A7.14,7.14,0,1,1,449.9,585.5,7.141,7.141,0,0,1,442.759,592.636Z" transform="translate(-14553.108 16059.481)" fill="#fecf3b"/>
    <path id="Path_3041" data-name="Path 3041" d="M442.833,592.632c-.024,0-.048,0-.074,0a7.14,7.14,0,0,1,0-14.281c.026,0,.05.005.074.005V562.845h-2.783a1.48,1.48,0,0,0-1.474,1.477v3.5a2.2,2.2,0,0,1-1.405,1.945l-1.582.654a2.187,2.187,0,0,1-2.367-.385l-2.477-2.479a1.486,1.486,0,0,0-2.085,0l-3.833,3.837a1.477,1.477,0,0,0,0,2.085l2.481,2.479a2.208,2.208,0,0,1,.383,2.363l-.652,1.584a2.2,2.2,0,0,1-1.951,1.4h-3.5a1.484,1.484,0,0,0-1.475,1.479V588.2a1.486,1.486,0,0,0,1.475,1.481h3.5a2.2,2.2,0,0,1,1.951,1.4l.652,1.582a2.216,2.216,0,0,1-.383,2.369l-2.481,2.477a1.481,1.481,0,0,0,0,2.089l3.833,3.831a1.479,1.479,0,0,0,2.085,0l2.477-2.479a2.2,2.2,0,0,1,2.367-.387l1.582.656a2.2,2.2,0,0,1,1.405,1.943v3.507a1.479,1.479,0,0,0,1.474,1.479h2.783Z" transform="translate(-14553.108 16059.481)" fill="#fecf3b"/>
    <path id="Path_3042" data-name="Path 3042" d="M447.9,574.552h-2.221a1.384,1.384,0,0,1-1.235-.889l-.415-1a1.389,1.389,0,0,1,.242-1.5l1.571-1.572a.936.936,0,0,0,0-1.322l-2.427-2.433a.947.947,0,0,0-1.326,0l-1.573,1.572a1.384,1.384,0,0,1-1.5.244l-1-.415a1.391,1.391,0,0,1-.884-1.233v-2.22a.945.945,0,0,0-.939-.937h-3.436a.938.938,0,0,0-.934.937V566a1.392,1.392,0,0,1-.891,1.233l-1,.415a1.386,1.386,0,0,1-1.5-.244l-1.571-1.572a.942.942,0,0,0-1.322,0l-2.43,2.433a.936.936,0,0,0,0,1.322l1.573,1.572a1.4,1.4,0,0,1,.243,1.5l-.413,1a1.393,1.393,0,0,1-1.237.889h-2.221a.941.941,0,0,0-.935.938v3.431a.942.942,0,0,0,.935.939h2.221a1.4,1.4,0,0,1,1.237.888l.413,1a1.405,1.405,0,0,1-.243,1.5l-1.573,1.571a.939.939,0,0,0,0,1.324l2.43,2.429a.938.938,0,0,0,1.322,0l1.571-1.572a1.4,1.4,0,0,1,1.5-.245l1,.416a1.4,1.4,0,0,1,.891,1.232v2.224a.938.938,0,0,0,.934.938h3.436a.944.944,0,0,0,.939-.938v-2.224a1.393,1.393,0,0,1,.884-1.232l1-.416a1.393,1.393,0,0,1,1.5.245l1.573,1.572a.942.942,0,0,0,1.326,0l2.427-2.429a.939.939,0,0,0,0-1.324l-1.571-1.571a1.394,1.394,0,0,1-.242-1.5l.415-1a1.389,1.389,0,0,1,1.235-.888H447.9a.941.941,0,0,0,.935-.939V575.49A.939.939,0,0,0,447.9,574.552Zm-13.426,7.181A4.527,4.527,0,1,1,439,577.207,4.527,4.527,0,0,1,434.47,581.733Z" transform="translate(-14520.806 16055.155)" fill="#434343"/>
  </g>
</svg>
