<svg xmlns="http://www.w3.org/2000/svg" width="44.804" height="50.781" viewBox="0 0 44.804 50.781">
  <g id="Group_917" data-name="Group 917" transform="translate(13135 -15384.471)">
    <path id="potted_plant_FILL1_wght400_GRAD0_opsz48" d="M28.4,18.872a15.263,15.263,0,0,1,4.854-9.987A15.15,15.15,0,0,1,43.274,4,14.424,14.424,0,0,1,39.1,13.365a16.12,16.12,0,0,1-8.836,5.258v5.912H50.8v8.09a3.718,3.718,0,0,1-3.734,3.734H9.734A3.718,3.718,0,0,1,6,32.625v-8.09H26.535V18.623a15.974,15.974,0,0,1-8.805-5.258A14.784,14.784,0,0,1,13.53,4a15.314,15.314,0,0,1,10.05,4.854A14.879,14.879,0,0,1,28.4,18.872Z" transform="translate(-13141 15380.471)" fill="#fecf3b"/>
    <path id="potted_plant_FILL1_wght400_GRAD0_opsz48-2" data-name="potted_plant_FILL1_wght400_GRAD0_opsz48" d="M17.7,50.279a3.674,3.674,0,0,1-2.271-.778A3.548,3.548,0,0,1,14.1,47.479L10.86,34.723H44.836L41.6,47.479A3.548,3.548,0,0,1,40.262,49.5a3.674,3.674,0,0,1-2.271.778Z" transform="translate(-13140.289 15384.973)" fill="#434343"/>
    <path id="psychiatry_FILL1_wght400_GRAD0_opsz48" d="M11.574,18.2v-5.31h-.338A4.986,4.986,0,0,1,9.2,12.47a5.31,5.31,0,0,1-1.7-1.194A5.171,5.171,0,0,1,6.38,9.489,5.974,5.974,0,0,1,6,7.375V6H7.317a4.964,4.964,0,0,1,2.01.421A5.476,5.476,0,0,1,11.05,7.615a5.394,5.394,0,0,1,.921,1.306,5.753,5.753,0,0,1,.515,1.53q.135-.206.287-.4t.321-.378a5.476,5.476,0,0,1,1.723-1.194,5,5,0,0,1,2.027-.421h1.318V9.437a5.642,5.642,0,0,1-.405,2.114,5.5,5.5,0,0,1-1.149,1.787,5.385,5.385,0,0,1-1.714,1.186,4.993,4.993,0,0,1-2,.412h-.3V18.2Z" transform="translate(-13110.272 15386.857)"/>
  </g>
</svg>
