<svg xmlns="http://www.w3.org/2000/svg" width="48.975" height="47.629" viewBox="0 0 48.975 47.629">
  <g id="Group_934" data-name="Group 934" transform="translate(13683.999 -16558.002)">
    <g id="Group_924" data-name="Group 924" transform="translate(442.489 1013)">
      <path id="Subtraction_33" data-name="Subtraction 33" d="M34.831,47.63H0V12.7H11.3V0H34.831V47.629Z" transform="translate(-14126.488 15545)" fill="#434343"/>
      <g id="Group_923" data-name="Group 923" transform="translate(-14102.914 15560.878)">
        <circle id="Ellipse_214" data-name="Ellipse 214" cx="12.701" cy="12.701" r="12.701" fill="#fecf3b"/>
        <path id="Path_3043" data-name="Path 3043" d="M9.072,3.552a23,23,0,0,0,.036,2.916,1.861,1.861,0,0,0,.777,1.161c.848.513,1.813.735,2.625,1.318a2.478,2.478,0,0,1,.081,4.081,5.514,5.514,0,0,1-1.748,1.024c-.73.257-1.59.153-1.678,1.529-.406-.09-.987.006-1.184-.3-.655-1.026-1.24-1.092-1.7.048-.382.953-.955.96-1.2.11-.324-1.124-.966-1.027-1.615-1.23A7.382,7.382,0,0,1,1.06,13.173,4.507,4.507,0,0,1,.016,11.208a1.328,1.328,0,0,1,.415-1.036c.194-.117.669.131.834.4.973,1.608,1.592,1.991,3.435,1.887,0-1.192.067-2.4-.041-3.581A1.388,1.388,0,0,0,3.8,7.968c-1.227-.343-2.413-.726-2.6-2.644-.132-1.353.927-2.64,2.423-3.473C4.214,1.521,4.6.416,5.176.273c.468-.116,1.045.8,1.628,1.007.262.094.731-.322.972-.663C8.2.019,8.8-.353,8.96.5c.235,1.242.911,1.256,1.564,1.53a.75.75,0,0,1,.24.119c.567.534,1.817.555,1.382,1.9-.385,1.191-1.171.093-1.775-.076C10,3.87,9.635,3.737,9.072,3.552Zm-3,5.219q.08,1.911.163,3.86h1.39C7.909,8.813,7.809,8.536,6.072,8.771Zm1.5-5.681c-.489.072-1.265.03-1.3.218a8.482,8.482,0,0,0-.137,2.861c.067.4.81.623,1.438,1.059Zm1.649,9.591,2.606-1.348.015-.575L9.225,8.953Zm-4.622-9-.324-.4L3.012,5,4.6,6.555Z" transform="translate(5.89 4.672)" fill="#434343"/>
      </g>
    </g>
    <path id="Path_3048" data-name="Path 3048" d="M10192.729,14271v12.8h-11.405Z" transform="translate(-23865.32 2287)" fill="#fecf3b"/>
  </g>
</svg>
