<svg xmlns="http://www.w3.org/2000/svg" width="45.048" height="47.629" viewBox="0 0 45.048 47.629">
  <g id="Group_928" data-name="Group 928" transform="translate(13771.109 -15545)">
    <g id="Group_927" data-name="Group 927" transform="translate(-13771.109 15545)">
      <g id="Group_925" data-name="Group 925" transform="translate(0 0)">
        <path id="Path_3044" data-name="Path 3044" d="M-26.439,1156.635H-44.97a3.893,3.893,0,0,0-4.065,3.688v40.253a3.892,3.892,0,0,0,4.065,3.689h18.531a3.889,3.889,0,0,0,4.062-3.689v-40.253A3.89,3.89,0,0,0-26.439,1156.635Z" transform="translate(49.035 -1156.635)" fill="#434343"/>
        <path id="Path_3045" data-name="Path 3045" d="M-30.641,1162.611H-24.3c.178,0,.324.244.324.541s-.146.542-.324.542h-6.343c-.179,0-.322-.243-.322-.542S-30.82,1162.611-30.641,1162.611Z" transform="translate(40.963 -1159.765)" fill="#fecf3b"/>
        <path id="Path_3046" data-name="Path 3046" d="M-24.975,1248.229a3.137,3.137,0,0,1-3.134-3.135,3.136,3.136,0,0,1,3.134-3.137,3.135,3.135,0,0,1,3.136,3.137A3.136,3.136,0,0,1-24.975,1248.229Z" transform="translate(38.109 -1203.316)" fill="#fecf3b"/>
        <rect id="Rectangle_661" data-name="Rectangle 661" width="18" height="2" transform="translate(4 35)" fill="#fecf3b"/>
      </g>
      <g id="Group_926" data-name="Group 926" transform="translate(18.874 6.575)">
        <path id="Path_3047" data-name="Path 3047" d="M644.8,1989.073c-.395.022-13.384.087-13.384.087a2.682,2.682,0,0,0-1.594.607c-2.137,1.846-4.212,3.762-6.487,5.817v-6.391h-4.708v-18.2H644.8Z" transform="translate(-618.629 -1970.989)" fill="#fecf3b"/>
      </g>
    </g>
  </g>
</svg>
