<svg xmlns="http://www.w3.org/2000/svg" width="61.103" height="47.629" viewBox="0 0 61.103 47.629">
  <g id="Group_920" data-name="Group 920" transform="translate(13431.051 -15545)">
    <path id="Path_3038" data-name="Path 3038" d="M854.4,1548.7c-8.244-6.3-16.457-12.38-22.385-20.919-3.835-5.524-6.4-11.275-3.429-18.091a13.876,13.876,0,0,1,23.754-3.317c.7.856,1.354,1.756,1.658,2.152,2.606-2.1,4.844-4.652,7.656-6.019a13.469,13.469,0,0,1,15.74,2.837,15.571,15.571,0,0,1,2.111,18.005c-4.319,8-10.776,14.1-17.779,19.686C859.388,1544.9,856.991,1546.7,854.4,1548.7Zm-23.158-35.009,1.367,1.557c.6-.653,1.614-1.246,1.714-1.968a5.6,5.6,0,0,1,4.488-5.045c.7-.2,1.217-1.074,1.818-1.639-.816-.4-1.652-1.175-2.448-1.136C834.708,1505.623,831.183,1509.625,831.245,1513.688Z" transform="translate(-14258.345 14043.934)" fill="#fecf3b"/>
    <path id="Path_3039" data-name="Path 3039" d="M840.108,1523.581c-3.9-2.978-7.779-5.852-10.582-9.889-1.813-2.611-3.025-5.33-1.621-8.552a6.559,6.559,0,0,1,11.229-1.568c.333.4.64.83.784,1.017a21.222,21.222,0,0,1,3.619-2.845,6.367,6.367,0,0,1,7.44,1.341,7.361,7.361,0,0,1,1,8.511,31.029,31.029,0,0,1-8.4,9.306C842.465,1521.785,841.332,1522.636,840.108,1523.581Zm-10.947-16.549.646.736c.282-.309.763-.589.81-.93a2.645,2.645,0,0,1,2.122-2.385c.333-.095.575-.508.859-.775-.386-.189-.781-.555-1.157-.537A3.957,3.957,0,0,0,829.161,1507.032Z" transform="translate(-14222.839 14067.749)" fill="#434343"/>
  </g>
</svg>
