<svg xmlns="http://www.w3.org/2000/svg" width="25.219" height="23.643" viewBox="0 0 25.219 23.643">
  <path id="undo_FILL0_wght400_GRAD0_opsz48" d="M24.077,31.643H12.729V29.278H24.116a6.769,6.769,0,0,0,4.748-1.832,5.935,5.935,0,0,0,1.99-4.551,5.935,5.935,0,0,0-1.99-4.551,6.769,6.769,0,0,0-4.748-1.832H12.492L16.984,21l-1.655,1.655L8,15.329,15.329,8l1.655,1.655-4.492,4.492H24.077a9.111,9.111,0,0,1,6.443,2.522,8.182,8.182,0,0,1,2.7,6.226,8.182,8.182,0,0,1-2.7,6.226A9.111,9.111,0,0,1,24.077,31.643Z" transform="translate(-8 -8)" fill="#949494"/>
</svg>
