<svg xmlns="http://www.w3.org/2000/svg" width="1154.551" height="400.475" viewBox="0 0 1154.551 400.475">
  <g id="Group_913" data-name="Group 913" transform="translate(14139 -12932.5)">
    <rect id="Rectangle_418" data-name="Rectangle 418" width="151" height="216" transform="translate(-13362 12969)" fill="#dadada"/>
    <g id="Group_217" data-name="Group 217" transform="translate(-13346.402 12970.046)">
      <path id="Path_1179" data-name="Path 1179" d="M1706.692,654.377,1543.676,817.393,1405.8,679.515a110.358,110.358,0,0,1,0-156.07l6.946-6.946a110.359,110.359,0,0,1,156.07,0Z" transform="translate(-1373.475 -484.176)" fill="#dadada"/>
    </g>
    <path id="Path_1181" data-name="Path 1181" d="M1766.534,1459l-1.509,1.509a23.971,23.971,0,0,1-33.9,0l-33.03-33.03a23.971,23.971,0,0,1,0-33.9l1.509-1.509a23.971,23.971,0,0,1,33.9,0l33.029,33.029A23.971,23.971,0,0,1,1766.534,1459Z" transform="translate(-14885.611 11865.444)" fill="#dadada"/>
    <path id="Path_1182" data-name="Path 1182" d="M1629.9,1322.364l-1.509,1.509a23.97,23.97,0,0,1-33.9,0l-33.03-33.029a23.971,23.971,0,0,1,0-33.9l1.509-1.508a23.969,23.969,0,0,1,33.9,0l33.03,33.03A23.971,23.971,0,0,1,1629.9,1322.364Z" transform="translate(-14706.439 11959.545)" fill="#dadada"/>
    <path id="Path_1183" data-name="Path 1183" d="M1493.261,1185.727l-1.509,1.509a23.97,23.97,0,0,1-33.9,0l-33.03-33.029a23.971,23.971,0,0,1,0-33.9l1.509-1.509a23.971,23.971,0,0,1,33.9,0l33.03,33.03A23.97,23.97,0,0,1,1493.261,1185.727Z" transform="translate(-14527.268 12053.646)" fill="#dadada"/>
    <path id="Path_1184" data-name="Path 1184" d="M1356.625,1049.092l-1.509,1.509a23.971,23.971,0,0,1-33.9,0l-33.029-33.03a23.97,23.97,0,0,1,0-33.9l1.508-1.508a23.971,23.971,0,0,1,33.9,0l33.029,33.029A23.971,23.971,0,0,1,1356.625,1049.092Z" transform="translate(-14348.095 12147.746)" fill="#dadada"/>
    <path id="Path_1185" data-name="Path 1185" d="M1676.255,661.005l-10.333,10.333a41.8,41.8,0,0,1-59.109,0l-51.694-51.695a23.971,23.971,0,0,1,0-33.9l5.987-5.988a23.971,23.971,0,0,1,33.9,0Z" transform="translate(-14743.802 12424.879)" fill="#dadada"/>
    <g id="Group_350" data-name="Group 350" transform="translate(-14139 12933.273)">
      <path id="Path_1645" data-name="Path 1645" d="M0,0H673.493V341.423H0Z" fill="#434343"/>
    </g>
    <line id="Line_142" data-name="Line 142" y2="342" transform="translate(-13557 12932.5)" fill="none" stroke="#fff" stroke-width="3" stroke-dasharray="7 7"/>
    <line id="Line_144" data-name="Line 144" y2="342" transform="translate(-13575 12932.5)" fill="none" stroke="#fff" stroke-width="3" stroke-dasharray="7 7"/>
    <rect id="Rectangle_489" data-name="Rectangle 489" width="123" height="272" transform="translate(-13466 12960)" fill="#fecf3b"/>
    <circle id="Ellipse_181" data-name="Ellipse 181" cx="21" cy="21" r="21" transform="translate(-13453 13158)" fill="#fff"/>
    <circle id="Ellipse_182" data-name="Ellipse 182" cx="21" cy="21" r="21" transform="translate(-13399 13158)" fill="#fff"/>
  </g>
</svg>
