<svg xmlns="http://www.w3.org/2000/svg" width="20.313" height="19.203" viewBox="0 0 20.313 19.203">
  <g id="Group_698" data-name="Group 698" transform="translate(10168.5 -17695.5)">
    <path id="Path_3003" data-name="Path 3003" d="M9.657,0c5.314,0,9.657,3.525,9.657,7.817A7.07,7.07,0,0,1,16.2,13.54a28.8,28.8,0,0,1-6.285,4.445c-.869.46-1.022.2-.92-.613.1-.511.2-1.175.2-1.175.1-.46-.409-.562-.613-.613h-.1C3.679,15.124,0,11.8,0,7.817,0,3.525,4.343,0,9.657,0" transform="translate(-10168 17696)" fill="#fecf3b" stroke="#fecf3b" stroke-width="1" fill-rule="evenodd"/>
    <path id="Path_3004" data-name="Path 3004" d="M35.011,65.613h3.015V64.8H35.931V61.27h-.92Zm3.525,0h.92V61.27h-.92Zm4.7-4.343v2.657L41.193,61.27h-.766v4.343h.92V63.007l2.044,2.606h.766V61.27Zm2.81,3.577V63.825h1.942v-.766H46.047v-.971h1.942V61.27H45.128v4.343h2.861v-.766Z" transform="translate(-10199.741 17640.453)" fill="#434343" fill-rule="evenodd"/>
  </g>
</svg>
