<svg xmlns="http://www.w3.org/2000/svg" width="46.052" height="36.842" viewBox="0 0 46.052 36.842">
  <g id="Group_683" data-name="Group 683" transform="translate(10908 -18074)">
    <rect id="Rectangle_508" data-name="Rectangle 508" width="42" height="19" transform="translate(-10906 18076)" fill="#fecf3b"/>
    <path id="mail_FILL1_wght400_GRAD0_opsz48" d="M7.454,44.842a3.314,3.314,0,0,1-2.418-1.036A3.314,3.314,0,0,1,4,41.388V11.454A3.314,3.314,0,0,1,5.036,9.036,3.314,3.314,0,0,1,7.454,8H46.6a3.314,3.314,0,0,1,2.418,1.036,3.314,3.314,0,0,1,1.036,2.418V41.388A3.541,3.541,0,0,1,46.6,44.842ZM27.026,27.457,46.6,14.62V11.454L27.026,24,7.454,11.454V14.62Z" transform="translate(-10912 18066)" fill="#434343"/>
  </g>
</svg>
