<svg xmlns="http://www.w3.org/2000/svg" xmlns:xlink="http://www.w3.org/1999/xlink" width="2030.001" height="403.798" viewBox="0 0 2030.001 403.798">
  <defs>
    <clipPath id="clip-path">
      <rect width="155" height="305" fill="none"/>
    </clipPath>
  </defs>
  <g id="Group_915" data-name="Group 915" transform="translate(14598 -13534)">
    <rect id="Rectangle_418" data-name="Rectangle 418" width="151" height="216" transform="translate(-13821 13575)" fill="#dadada"/>
    <g id="Group_217" data-name="Group 217" transform="translate(-13805.402 13576.046)">
      <path id="Path_1179" data-name="Path 1179" d="M1706.692,654.377,1543.676,817.393,1405.8,679.515a110.358,110.358,0,0,1,0-156.07l6.946-6.946a110.359,110.359,0,0,1,156.07,0Z" transform="translate(-1373.475 -484.176)" fill="#dadada"/>
    </g>
    <g id="Group_914" data-name="Group 914">
      <rect id="Rectangle_417" data-name="Rectangle 417" width="141" height="216" transform="translate(-13527 13575)" fill="#fff"/>
      <path id="Path_1180" data-name="Path 1180" d="M1170.015,673.6l60.222-60.221h0l98.311-98.312a115.269,115.269,0,0,1,163.016,0h0a115.27,115.27,0,0,1,0,163.016l-47.939,47.939h0L1333.032,836.62a25.037,25.037,0,0,1-35.408,0h0a25.038,25.038,0,0,1,0-35.408l56.657-56.657a5.041,5.041,0,0,0,0-7.128h0a5.04,5.04,0,0,0-7.128,0L1290.5,794.084a25.037,25.037,0,0,1-35.408,0h0a25.038,25.038,0,0,1,0-35.408l56.657-56.657a5.039,5.039,0,0,0,0-7.127h0a5.039,5.039,0,0,0-7.127,0l-56.657,56.657a25.038,25.038,0,0,1-35.408,0h0a25.038,25.038,0,0,1,0-35.409l56.657-56.657a5.04,5.04,0,0,0,0-7.128h0a5.04,5.04,0,0,0-7.128,0l-56.657,56.657a25.037,25.037,0,0,1-35.408,0h0A25.038,25.038,0,0,1,1170.015,673.6Z" transform="translate(-14931.891 13093.844)" fill="#fff"/>
      <g id="Group_349" data-name="Group 349" transform="translate(-13606.176 13534)">
        <rect id="Rectangle_105" data-name="Rectangle 105" width="155.442" height="341.423" transform="translate(217.786)" fill="#fff6da"/>
        <rect id="Rectangle_106" data-name="Rectangle 106" width="664.948" height="341.423" transform="translate(373.228)" fill="#fecf3b"/>
      </g>
      <g id="Repeat_Grid_1" data-name="Repeat Grid 1" transform="translate(-13388.5 13562)" clip-path="url(#clip-path)">
        <g transform="translate(-1154.5 -188)">
          <line id="Line_143" data-name="Line 143" x2="155" transform="translate(1154.5 189.5)" fill="none" stroke="#fff" stroke-width="3"/>
        </g>
        <g transform="translate(-1154.5 -159)">
          <line id="Line_143-2" data-name="Line 143" x2="155" transform="translate(1154.5 189.5)" fill="none" stroke="#fff" stroke-width="3"/>
        </g>
        <g transform="translate(-1154.5 -130)">
          <line id="Line_143-3" data-name="Line 143" x2="155" transform="translate(1154.5 189.5)" fill="none" stroke="#fff" stroke-width="3"/>
        </g>
        <g transform="translate(-1154.5 -101)">
          <line id="Line_143-4" data-name="Line 143" x2="155" transform="translate(1154.5 189.5)" fill="none" stroke="#fff" stroke-width="3"/>
        </g>
        <g transform="translate(-1154.5 -72)">
          <line id="Line_143-5" data-name="Line 143" x2="155" transform="translate(1154.5 189.5)" fill="none" stroke="#fff" stroke-width="3"/>
        </g>
        <g transform="translate(-1154.5 -43)">
          <line id="Line_143-6" data-name="Line 143" x2="155" transform="translate(1154.5 189.5)" fill="none" stroke="#fff" stroke-width="3"/>
        </g>
        <g transform="translate(-1154.5 -14)">
          <line id="Line_143-7" data-name="Line 143" x2="155" transform="translate(1154.5 189.5)" fill="none" stroke="#fff" stroke-width="3"/>
        </g>
        <g transform="translate(-1154.5 15)">
          <line id="Line_143-8" data-name="Line 143" x2="155" transform="translate(1154.5 189.5)" fill="none" stroke="#fff" stroke-width="3"/>
        </g>
        <g transform="translate(-1154.5 44)">
          <line id="Line_143-9" data-name="Line 143" x2="155" transform="translate(1154.5 189.5)" fill="none" stroke="#fff" stroke-width="3"/>
        </g>
        <g transform="translate(-1154.5 73)">
          <line id="Line_143-10" data-name="Line 143" x2="155" transform="translate(1154.5 189.5)" fill="none" stroke="#fff" stroke-width="3"/>
        </g>
        <g transform="translate(-1154.5 102)">
          <line id="Line_143-11" data-name="Line 143" x2="155" transform="translate(1154.5 189.5)" fill="none" stroke="#fff" stroke-width="3"/>
        </g>
      </g>
    </g>
    <path id="Path_1185" data-name="Path 1185" d="M1676.255,661.005l-10.333,10.333a41.8,41.8,0,0,1-59.109,0l-51.694-51.695a23.971,23.971,0,0,1,0-33.9l5.987-5.988a23.971,23.971,0,0,1,33.9,0Z" transform="translate(-15202.802 13030.879)" fill="#dadada"/>
    <g id="Group_350" data-name="Group 350" transform="translate(-14598 13539.273)">
      <path id="Path_1645" data-name="Path 1645" d="M0,0H673.493V341.423H0Z" fill="#434343"/>
    </g>
    <line id="Line_142" data-name="Line 142" y2="342" transform="translate(-14016 13538.5)" fill="none" stroke="#fff" stroke-width="3" stroke-dasharray="7 7"/>
    <line id="Line_144" data-name="Line 144" y2="342" transform="translate(-14034 13538.5)" fill="none" stroke="#fff" stroke-width="3" stroke-dasharray="7 7"/>
    <rect id="Rectangle_489" data-name="Rectangle 489" width="123" height="272" transform="translate(-13925 13566)" fill="#fecf3b"/>
    <circle id="Ellipse_181" data-name="Ellipse 181" cx="21" cy="21" r="21" transform="translate(-13912 13764)" fill="#fff"/>
    <circle id="Ellipse_182" data-name="Ellipse 182" cx="21" cy="21" r="21" transform="translate(-13858 13764)" fill="#fff"/>
  </g>
</svg>
