<svg xmlns="http://www.w3.org/2000/svg" xmlns:xlink="http://www.w3.org/1999/xlink" width="2030.001" height="404.975" viewBox="0 0 2030.001 404.975">
  <defs>
    <clipPath id="clip-path">
      <rect width="155" height="305" fill="none"/>
    </clipPath>
  </defs>
  <g id="Group_911" data-name="Group 911" transform="translate(11657 -12974)">
    <rect id="Rectangle_417" data-name="Rectangle 417" width="141" height="216" transform="translate(-10586 13015)" fill="#fff"/>
    <rect id="Rectangle_418" data-name="Rectangle 418" width="151" height="216" transform="translate(-10880 13015)" fill="#dadada"/>
    <g id="Group_218" data-name="Group 218" transform="translate(-10864.402 13015.153)">
      <g id="Group_217" data-name="Group 217" transform="translate(0 0.892)">
        <path id="Path_1179" data-name="Path 1179" d="M1706.692,654.377,1543.676,817.393,1405.8,679.515a110.358,110.358,0,0,1,0-156.07l6.946-6.946a110.359,110.359,0,0,1,156.07,0Z" transform="translate(-1373.475 -484.176)" fill="#dadada"/>
      </g>
      <path id="Path_1180" data-name="Path 1180" d="M1170.015,673.6l60.222-60.221h0l98.311-98.312a115.269,115.269,0,0,1,163.016,0h0a115.27,115.27,0,0,1,0,163.016l-47.939,47.939h0L1333.032,836.62a25.037,25.037,0,0,1-35.408,0h0a25.038,25.038,0,0,1,0-35.408l56.657-56.657a5.041,5.041,0,0,0,0-7.128h0a5.04,5.04,0,0,0-7.128,0L1290.5,794.084a25.037,25.037,0,0,1-35.408,0h0a25.038,25.038,0,0,1,0-35.408l56.657-56.657a5.039,5.039,0,0,0,0-7.127h0a5.039,5.039,0,0,0-7.127,0l-56.657,56.657a25.038,25.038,0,0,1-35.408,0h0a25.038,25.038,0,0,1,0-35.409l56.657-56.657a5.04,5.04,0,0,0,0-7.128h0a5.04,5.04,0,0,0-7.128,0l-56.657,56.657a25.037,25.037,0,0,1-35.408,0h0A25.038,25.038,0,0,1,1170.015,673.6Z" transform="translate(-1126.488 -481.31)" fill="#fff"/>
      <path id="Path_1181" data-name="Path 1181" d="M1766.534,1459l-1.509,1.509a23.971,23.971,0,0,1-33.9,0l-33.03-33.03a23.971,23.971,0,0,1,0-33.9l1.509-1.509a23.971,23.971,0,0,1,33.9,0l33.029,33.029A23.971,23.971,0,0,1,1766.534,1459Z" transform="translate(-1539.209 -1103.709)" fill="#dadada"/>
      <path id="Path_1182" data-name="Path 1182" d="M1629.9,1322.364l-1.509,1.509a23.97,23.97,0,0,1-33.9,0l-33.03-33.029a23.971,23.971,0,0,1,0-33.9l1.509-1.508a23.969,23.969,0,0,1,33.9,0l33.03,33.03A23.971,23.971,0,0,1,1629.9,1322.364Z" transform="translate(-1360.038 -1009.608)" fill="#dadada"/>
      <path id="Path_1183" data-name="Path 1183" d="M1493.261,1185.727l-1.509,1.509a23.97,23.97,0,0,1-33.9,0l-33.03-33.029a23.971,23.971,0,0,1,0-33.9l1.509-1.509a23.971,23.971,0,0,1,33.9,0l33.03,33.03A23.97,23.97,0,0,1,1493.261,1185.727Z" transform="translate(-1180.865 -915.508)" fill="#dadada"/>
      <path id="Path_1184" data-name="Path 1184" d="M1356.625,1049.092l-1.509,1.509a23.971,23.971,0,0,1-33.9,0l-33.029-33.03a23.97,23.97,0,0,1,0-33.9l1.508-1.508a23.971,23.971,0,0,1,33.9,0l33.029,33.029A23.971,23.971,0,0,1,1356.625,1049.092Z" transform="translate(-1001.693 -821.408)" fill="#dadada"/>
      <path id="Path_1185" data-name="Path 1185" d="M1676.255,661.005l-10.333,10.333a41.8,41.8,0,0,1-59.109,0l-51.694-51.695a23.971,23.971,0,0,1,0-33.9l5.987-5.988a23.971,23.971,0,0,1,33.9,0Z" transform="translate(-1397.4 -544.274)" fill="#dadada"/>
    </g>
    <g id="Group_349" data-name="Group 349" transform="translate(-10665.176 12974)">
      <rect id="Rectangle_105" data-name="Rectangle 105" width="155.442" height="341.423" transform="translate(217.786)" fill="#fff6da"/>
      <rect id="Rectangle_106" data-name="Rectangle 106" width="664.948" height="341.423" transform="translate(373.228)" fill="#fecf3b"/>
    </g>
    <g id="Group_350" data-name="Group 350" transform="translate(-11657 12979.273)">
      <path id="Path_1645" data-name="Path 1645" d="M0,0H673.493V341.423H0Z" fill="#434343"/>
    </g>
    <line id="Line_142" data-name="Line 142" y2="342" transform="translate(-11075 12978.5)" fill="none" stroke="#fff" stroke-width="3" stroke-dasharray="7 7"/>
    <line id="Line_144" data-name="Line 144" y2="342" transform="translate(-11093 12978.5)" fill="none" stroke="#fff" stroke-width="3" stroke-dasharray="7 7"/>
    <g id="Repeat_Grid_1" data-name="Repeat Grid 1" transform="translate(-10447.5 13002)" clip-path="url(#clip-path)">
      <g transform="translate(-1154.5 -188)">
        <line id="Line_143" data-name="Line 143" x2="155" transform="translate(1154.5 189.5)" fill="none" stroke="#fff" stroke-width="3"/>
      </g>
      <g transform="translate(-1154.5 -159)">
        <line id="Line_143-2" data-name="Line 143" x2="155" transform="translate(1154.5 189.5)" fill="none" stroke="#fff" stroke-width="3"/>
      </g>
      <g transform="translate(-1154.5 -130)">
        <line id="Line_143-3" data-name="Line 143" x2="155" transform="translate(1154.5 189.5)" fill="none" stroke="#fff" stroke-width="3"/>
      </g>
      <g transform="translate(-1154.5 -101)">
        <line id="Line_143-4" data-name="Line 143" x2="155" transform="translate(1154.5 189.5)" fill="none" stroke="#fff" stroke-width="3"/>
      </g>
      <g transform="translate(-1154.5 -72)">
        <line id="Line_143-5" data-name="Line 143" x2="155" transform="translate(1154.5 189.5)" fill="none" stroke="#fff" stroke-width="3"/>
      </g>
      <g transform="translate(-1154.5 -43)">
        <line id="Line_143-6" data-name="Line 143" x2="155" transform="translate(1154.5 189.5)" fill="none" stroke="#fff" stroke-width="3"/>
      </g>
      <g transform="translate(-1154.5 -14)">
        <line id="Line_143-7" data-name="Line 143" x2="155" transform="translate(1154.5 189.5)" fill="none" stroke="#fff" stroke-width="3"/>
      </g>
      <g transform="translate(-1154.5 15)">
        <line id="Line_143-8" data-name="Line 143" x2="155" transform="translate(1154.5 189.5)" fill="none" stroke="#fff" stroke-width="3"/>
      </g>
      <g transform="translate(-1154.5 44)">
        <line id="Line_143-9" data-name="Line 143" x2="155" transform="translate(1154.5 189.5)" fill="none" stroke="#fff" stroke-width="3"/>
      </g>
      <g transform="translate(-1154.5 73)">
        <line id="Line_143-10" data-name="Line 143" x2="155" transform="translate(1154.5 189.5)" fill="none" stroke="#fff" stroke-width="3"/>
      </g>
      <g transform="translate(-1154.5 102)">
        <line id="Line_143-11" data-name="Line 143" x2="155" transform="translate(1154.5 189.5)" fill="none" stroke="#fff" stroke-width="3"/>
      </g>
    </g>
    <rect id="Rectangle_489" data-name="Rectangle 489" width="123" height="272" transform="translate(-10984 13006)" fill="#fecf3b"/>
    <circle id="Ellipse_181" data-name="Ellipse 181" cx="21" cy="21" r="21" transform="translate(-10971 13204)" fill="#fff"/>
    <circle id="Ellipse_182" data-name="Ellipse 182" cx="21" cy="21" r="21" transform="translate(-10917 13204)" fill="#fff"/>
  </g>
</svg>
