<svg xmlns="http://www.w3.org/2000/svg" width="32" height="32" viewBox="0 0 32 32">
  <g id="Group_854" data-name="Group 854" transform="translate(-62 -698)">
    <g id="Ellipse_191" data-name="Ellipse 191" transform="translate(62 698)" fill="#434343" stroke="#fecf3b" stroke-width="1">
      <circle cx="16" cy="16" r="16" stroke="none"/>
      <circle cx="16" cy="16" r="15.5" fill="none"/>
    </g>
    <path id="share_FILL1_wght400_GRAD0_opsz48" d="M16.319,17.6a1.944,1.944,0,0,1-1.938-1.938,1.832,1.832,0,0,1,.026-.28,1.522,1.522,0,0,1,.076-.3L9.332,12.092a1.943,1.943,0,0,1-.629.467,1.758,1.758,0,0,1-.765.178A1.944,1.944,0,0,1,6,10.8a1.858,1.858,0,0,1,.569-1.377,1.935,1.935,0,0,1,2.116-.408,2.052,2.052,0,0,1,.646.442L14.483,6.5a1.184,1.184,0,0,1-.076-.272,1.761,1.761,0,0,1-.026-.289,1.858,1.858,0,0,1,.569-1.377,1.934,1.934,0,0,1,3.306,1.377A1.88,1.88,0,0,1,17.7,7.306a1.858,1.858,0,0,1-1.377.569,2.28,2.28,0,0,1-.756-.127,1.452,1.452,0,0,1-.62-.416L9.791,10.188a3.141,3.141,0,0,1,.059.314,2.173,2.173,0,0,1,.025.3,1.388,1.388,0,0,1-.025.255q-.026.136-.059.272l5.151,2.924a2.023,2.023,0,0,1,.595-.382,1.984,1.984,0,0,1,.782-.144,1.938,1.938,0,1,1,0,3.876Z" transform="translate(65.872 702.7)" fill="#fecf3b"/>
  </g>
</svg>
