<svg xmlns="http://www.w3.org/2000/svg" width="22.159" height="24.588" viewBox="0 0 22.159 24.588">
  <path id="share_FILL1_wght400_GRAD0_opsz48" d="M24.656,28.587a3.515,3.515,0,0,1-3.5-3.5,3.312,3.312,0,0,1,.046-.507,2.752,2.752,0,0,1,.138-.538l-9.312-5.409a3.512,3.512,0,0,1-1.137.845A3.179,3.179,0,0,1,9.5,19.8a3.515,3.515,0,0,1-3.5-3.5A3.359,3.359,0,0,1,7.03,13.8a3.5,3.5,0,0,1,3.826-.738,3.71,3.71,0,0,1,1.168.8l9.312-5.348a2.141,2.141,0,0,1-.138-.492,3.184,3.184,0,0,1-.046-.522,3.359,3.359,0,0,1,1.03-2.489A3.5,3.5,0,0,1,28.159,7.5a3.4,3.4,0,0,1-1.014,2.474,3.359,3.359,0,0,1-2.489,1.03,4.123,4.123,0,0,1-1.368-.231,2.624,2.624,0,0,1-1.122-.753l-9.312,5.163a5.679,5.679,0,0,1,.108.569,3.928,3.928,0,0,1,.046.538,2.509,2.509,0,0,1-.046.461q-.046.246-.108.492l9.312,5.286a3.657,3.657,0,0,1,1.076-.692,3.588,3.588,0,0,1,1.414-.261,3.51,3.51,0,0,1,2.489,5.978A3.359,3.359,0,0,1,24.656,28.587Z" transform="translate(-6 -4)" fill="#949494"/>
</svg>
